<svg width="11" height="20" viewBox="0 0 11 20" fill="none" xmlns="http://www.w3.org/2000/svg">
<path id="Vector" fill-rule="evenodd" clip-rule="evenodd" d="M10.3667 10C10.3667 10.3333 10.2333 10.6467 10 10.88L1.07333 19.82C0.953333 19.9333 0.793333 20 0.626667 20C0.46 20 0.306667 19.9333 0.186667 19.82C0.0666668 19.7 0 19.5467 0 19.38C0 19.2133 0.0666668 19.0533 0.186667 18.9333L9.12 10L0.186667 1.06667C0.0666668 0.946667 0 0.793333 0 0.626667C0 0.459999 0.0666668 0.299999 0.186667 0.186666C0.306667 0.0666656 0.46 0 0.626667 0C0.793333 0 0.953333 0.0666656 1.06667 0.18L10 9.11333C10.24 9.35333 10.3667 9.66667 10.3667 10Z" fill="white"/>
</svg>
