<svg width="43" height="43" viewBox="0 0 43 43" fill="none" xmlns="http://www.w3.org/2000/svg">
<g id="Date &#38; time / clock" clip-path="url(#clip0_999_221)">
<path id="Vector" fill-rule="evenodd" clip-rule="evenodd" d="M20.6113 9.86133C21.6003 9.86133 22.403 10.664 22.403 11.653V20.726L30.702 28.337C31.433 29.0107 31.476 30.143 30.8167 30.874C30.143 31.5907 29.0107 31.648 28.2797 30.9887L19.393 22.8473C19.0203 22.5033 18.8053 22.0303 18.8053 21.5287V11.6387C18.8053 10.6497 19.608 9.86133 20.6113 9.86133ZM21.5 3.58333C11.61 3.58333 3.58333 11.61 3.58333 21.5C3.58333 31.39 11.61 39.4167 21.5 39.4167C31.39 39.4023 39.4023 31.39 39.4167 21.5C39.4167 11.61 31.39 3.58333 21.5 3.58333ZM21.5 0C33.368 0.0143333 42.9857 9.632 43 21.5C43 33.368 33.368 43 21.5 43C9.632 43 0 33.368 0 21.5C0 9.632 9.632 0 21.5 0Z" fill="#0097BB"/>
</g>
<defs>
<clipPath id="clip0_999_221">
<rect width="43" height="43" fill="white"/>
</clipPath>
</defs>
</svg>
