<svg width="600" height="472" viewBox="0 0 600 472" fill="none" xmlns="http://www.w3.org/2000/svg">
<rect width="1567" height="472" fill="#0C0C0C"/>
<rect x="2.12122" width="304.581" height="50.2418" rx="18.5" transform="matrix(0.707074 -0.70714 0.707074 0.70714 274.923 348.935)" stroke="white" stroke-width="3"/>
<rect y="2.12142" width="181.958" height="50.2418" transform="matrix(0.707074 0.70714 -0.707074 0.70714 479.776 216.021)" stroke="white" stroke-width="3"/>
<rect x="2.12122" width="233.004" height="50.2418" transform="matrix(0.707074 -0.70714 0.707074 0.70714 534.764 347.376)" stroke="white" stroke-width="3"/>
<rect y="2.12142" width="232.989" height="50.2418" rx="18.5" transform="matrix(0.707074 0.70714 -0.707074 0.70714 184.975 182.384)" stroke="white" stroke-width="3"/>
<rect width="45.2972" height="40.3089" transform="matrix(0.707074 -0.70714 0.707074 0.70714 266.541 334.324)" fill="#0C0C0C"/>
<rect width="45.2972" height="45.1807" transform="matrix(0.707074 -0.70714 0.707074 0.70714 301.024 326.455)" fill="#0C0C0C"/>
<rect width="45.3089" height="40.3089" transform="matrix(0.707074 -0.70714 0.707074 0.70714 435.374 242.302)" fill="#0C0C0C"/>
<rect width="45.3089" height="40.3089" transform="matrix(0.707074 -0.70714 0.707074 0.70714 519.682 326.377)" fill="#0C0C0C"/>
<rect width="45.3089" height="45.4007" transform="matrix(0.707074 -0.70714 0.707074 0.70714 555.995 329.548)" fill="#0C0C0C"/>
<rect width="45.3089" height="44.7898" transform="matrix(0.707074 -0.70714 0.707074 0.70714 444.925 182.669)" fill="black"/>
<rect y="2.12142" width="164.9" height="50.2434" rx="18.5" transform="matrix(0.707074 0.70714 -0.707074 0.70714 466.029 85.4752)" stroke="white" stroke-width="3"/>
<rect width="45.3089" height="45.1945" transform="matrix(0.707074 -0.70714 0.707074 0.70714 444.116 183.186)" fill="#0C0C0C"/>
<rect width="45.3089" height="45.1945" transform="matrix(0.707074 -0.70714 0.707074 0.70714 464.002 163.298)" fill="#0C0C0C"/>
<rect width="44.9387" height="45.1945" transform="matrix(0.707074 -0.70714 0.707074 0.70714 485.854 175.916)" fill="#0C0C0C"/>
<rect width="44.9387" height="45.1945" transform="matrix(0.707074 -0.70714 0.707074 0.70714 454.722 144.475)" fill="#0C0C0C"/>
</svg>
