<svg width="600" height="472" viewBox="0 0 600 472" fill="none" xmlns="http://www.w3.org/2000/svg">
<g clip-path="url(#clip0_3739_1726)">
<path d="M478.702 145.136L289.503 334.353C282.278 341.578 282.278 353.292 289.503 360.517L298.866 369.881C306.09 377.106 317.803 377.106 325.027 369.881L514.227 180.664C521.451 173.439 521.451 161.725 514.227 154.5L504.864 145.136C497.64 137.911 485.927 137.911 478.702 145.136Z" stroke="white" stroke-width="3"/>
<path d="M606.931 346.191L478.273 217.521L442.749 253.049L571.407 381.719L606.931 346.191Z" stroke="white" stroke-width="3"/>
<path d="M701.017 181.11L536.266 345.876L571.79 381.404L736.541 216.638L701.017 181.11Z" stroke="white" stroke-width="3"/>
<path d="M335.136 335.558L196.557 196.966C189.333 189.741 177.62 189.741 170.396 196.966L161.033 206.33C153.808 213.555 153.808 225.269 161.033 232.494L299.611 371.086C306.836 378.311 318.549 378.311 325.773 371.086L335.136 361.722C342.361 354.497 342.361 342.783 335.136 335.558Z" stroke="white" stroke-width="3"/>
<path d="M568.047 190.501L477.612 100.057C470.388 92.8324 458.675 92.8324 451.45 100.057L442.086 109.422C434.862 116.647 434.862 128.362 442.086 135.587L532.521 226.03C539.745 233.255 551.458 233.255 558.683 226.03L568.047 216.665C575.271 209.44 575.271 197.726 568.047 190.501Z" stroke="white" stroke-width="3"/>
</g>
<defs>
<clipPath id="clip0_3739_1726">
<rect width="600" height="472" fill="white"/>
</clipPath>
</defs>
</svg>
