<svg width="600" height="472" viewBox="0 0 600 472" fill="none" xmlns="http://www.w3.org/2000/svg">
<g clip-path="url(#clip0_3739_1759)">
<mask id="mask0_3739_1759" style="mask-type:luminance" maskUnits="userSpaceOnUse" x="0" y="0" width="600" height="472">
<path d="M600 0H0V472H600V0Z" fill="white"/>
</mask>
<g mask="url(#mask0_3739_1759)">
<path d="M478.704 145.136L289.505 334.353C282.28 341.578 282.28 353.292 289.505 360.517L298.868 369.881C306.092 377.106 317.805 377.106 325.029 369.881L514.229 180.664C521.453 173.439 521.453 161.725 514.229 154.5L504.866 145.136C497.642 137.911 485.929 137.911 478.704 145.136Z" fill="black" stroke="white" stroke-width="3"/>
<path d="M606.932 346.191L478.274 217.521L442.75 253.049L571.408 381.719L606.932 346.191Z" fill="black" stroke="white" stroke-width="3"/>
<path d="M701.017 181.11L536.266 345.876L571.79 381.404L736.541 216.638L701.017 181.11Z" fill="black" stroke="white" stroke-width="3"/>
<path d="M335.139 335.558L196.56 196.966C189.336 189.741 177.623 189.741 170.399 196.966L161.036 206.33C153.811 213.555 153.811 225.269 161.036 232.494L299.614 371.086C306.839 378.311 318.552 378.311 325.776 371.086L335.139 361.722C342.364 354.497 342.364 342.783 335.139 335.558Z" fill="black" stroke="white" stroke-width="3"/>
<path d="M568.051 190.501L477.616 100.057C470.392 92.8325 458.679 92.8325 451.454 100.057L442.09 109.422C434.866 116.647 434.866 128.362 442.09 135.587L532.525 226.03C539.749 233.255 551.462 233.255 558.687 226.03L568.051 216.665C575.275 209.44 575.275 197.726 568.051 190.501Z" fill="black" stroke="white" stroke-width="3"/>
</g>
</g>
<defs>
<clipPath id="clip0_3739_1759">
<rect width="600" height="472" fill="white"/>
</clipPath>
</defs>
</svg>
